<svg xmlns="http://www.w3.org/2000/svg" xmlns:xlink="http://www.w3.org/1999/xlink" version="1.1" x="0px" y="0px" viewBox="145 347 100 125"
style="enable-background:new 145 347 100 100;" xml:space="preserve"><g>
<path fill="#ec4899" d="M193.9,424.6c-2.5-3.5-4.5-5.9-6.3-7.8c-1.9-2-4.1-3.1-5.9-3.8c-0.1,0-0.2,0-0.3,0c-5.9-6.1-9.7-6-10.2-5.7   c-0.6,0.4-1.8,4,1.9,11.6c-0.1,0.1-0.1,0.2-0.1,0.3c0.1,2,0.4,4.4,1.6,6.9c1.1,2.3,2.8,5,5.2,8.5l0.5,0.8c2.4,3.6,4.3,6.4,6,9   c0.4,0,0.8,0,1.2,0c-1.9-2.8-3.9-5.8-6.4-9.6l-0.5-0.8c-2.4-3.5-4-6.2-5.1-8.4c-0.8-1.7-1.2-3.3-1.4-4.8c0.9,1.7,2.1,3.5,3.5,5.5   c0.7,1,1.8,1.6,3,1.7c1.2,0,2.6-0.4,4.2-1.4c1.5-1.1,2.4-2.3,2.7-3.5c0.4-1.2,0.2-2.4-0.6-3.4c-1.4-2-2.8-3.7-4-5.2   c1.3,0.7,2.8,1.6,4,2.9c1.7,1.8,3.7,4.2,6.2,7.7l0.6,0.8c3.2,4.3,5.5,7.5,7.9,10.6c0.2-0.2,0.4-0.5,0.7-0.7   c-2.3-3.1-4.6-6.2-7.7-10.5L193.9,424.6z M171.9,409.1c0.2-0.2,1.2-0.2,2.7,0.4c-1.1,7.6,3.9,16,3.9,16   C171.4,416.6,171.7,409.2,171.9,409.1z"/><path fill="#ec4899" d="M204.7,410.9c-0.4-0.8-1.1-1.5-1.9-1.9c-6.7-3.6-14-6.2-21.5-7.5l-1.2-0.2c1.7-0.4,4.2-0.5,7.7,0v-8.5   c0-0.8-0.7-1.5-1.5-1.5h-12.4c-0.8,0-1.5,0.7-1.5,1.5v10.1c-5.2,1.4-10.3,3.5-15.1,6.1c-0.8,0.4-1.5,1.1-1.9,1.9   c0,0.1-0.1,0.1-0.1,0.2c-0.5,0.9-0.7,1.9-0.6,2.9c1.3,8.7,4.8,16.9,10.2,23.7c0.7,0.9,1.7,1.6,2.7,2.1c0,0,0,0,0,0   c0.9,0.4,2,0.6,3,0.6h9.5h2.2c-0.9-1.3-1.9-2.8-3-4.4l-0.5-0.8c-2.4-3.6-4.1-6.4-5.2-8.7c-1.3-2.7-1.6-5.2-1.7-7.4   c0-0.1,0-0.2,0-0.2c-3.5-7.3-2.7-11.6-1.3-12.6l0,0c1.4-0.9,5.7-0.2,11.4,5.5c0.1,0,0.2,0,0.2,0.1c2,0.8,4.3,2,6.3,4.1   c1.8,1.9,3.8,4.3,6.4,7.9l0.6,0.8c1.7,2.3,3.1,4.2,4.4,6c2.8-5.2,4.7-10.8,5.6-16.7c0.2-1-0.1-2-0.6-2.9   C204.8,411,204.8,410.9,204.7,410.9z"/><path fill="#ec4899" d="M229.6,349.6l-29.3,5.4c0,0,0,0-0.1,0c-2.7,0.5-4.3,3.5-3.3,6.1l2.7,7.5c-1-0.8-2.3-2.1-2.3-2.1s0,0,0,0l-17.8,6.5   c-0.4,0.2-0.6,0.6-0.5,1c-8.5,1.9-12.1,5.3-13,6.4c-0.6,0.6-0.6,1.6-0.2,2.4l3.6,7.1c0.3,0.6,1.1,0.5,1.3-0.1   c1.5-4.1,4.2-8.6,8.9-12.2c-0.3-1-0.3-1.8-0.1-2.5l0.6,1.6c0.2,0.4,0.6,0.6,1,0.5l19.2-7l1.8,4.9c0.9,2.6,4,3.9,6.4,2.5   c0,0,0,0,0.1,0l25.9-14.8C237.4,361,233,348.9,229.6,349.6z"/></g></svg>